<svg xmlns="http://www.w3.org/2000/svg" style="display: none;">
  <symbol id="icon-phone" viewBox="0 0 17 17">
        <path stroke-width="1.39659" stroke="currentColor" stroke-linejoin="round" d="M7.3699 4.357 5.0075 1.6301c-0.2723-0.3142-0.7716-0.3128-1.0879 42e-4L1.9769 3.5805C1.3987 4.1594 1.2333 5.019 1.5677 5.7082c1.9983 4.1373 5.335 7.4788 9.4696 9.4828 0.6885 0.3345 1.5474 0.169 2.1256-0.4099l1.9608-1.9643c0.3177-0.3177 0.3184-0.8198 14e-4-1.0921l-2.7373-2.3498c-0.2863-0.2458-0.7311-0.2137-1.0181 0.074l-0.9525 0.9539c-0.0488 0.0511-0.1129 0.0848-0.1827 0.0959s-0.1412-1e-3-0.2035-0.0344C8.4742 9.5677 7.1827 8.2746 6.2882 6.7165 6.2547 6.6542 6.2426 6.5826 6.2537 6.5127 6.2648 6.4428 6.2985 6.3785 6.3496 6.3297l0.9497-0.9504c0.2877-0.2891 0.3191-0.736 0.0705-1.023z" />
  </symbol>

  <symbol id="icon-email" viewBox="0 0 17 17">
   <g stroke-width="1.39659" stroke="currentColor" stroke-linecap="round" stroke-linejoin="round" clip-path="url(#Frame1_clip0_0_2730)">
        <path d="M1.3975 4.1886c0-0.3704 0.1471-0.7256 0.409-0.9876 0.2619-0.2619 0.6171-0.409 0.9876-0.409l11.1726 0c0.3704 0 0.7257 0.1471 0.9876 0.409 0.2619 0.262 0.409 0.6172 0.409 0.9876v8.3795c0 0.3704-0.1471 0.7256-0.409 0.9875s-0.6172 0.4091-0.9876 0.4091H2.7941c-0.3705 0-0.7257-0.1472-0.9876-0.4091-0.2619-0.2619-0.409-0.6171-0.409-0.9875z" />
        <path d="M1.3975 5.585 6.6354 9.7754c0.4952 0.3963 1.1107 0.6122 1.745 0.6122 0.6343 0 1.2497-0.2159 1.745-0.6122l5.2379-4.1904" />
    </g>
    <defs>
        <clipPath id="Frame1_clip0_0_2730">
            <rect fill="#fff" width="16.759" height="16.759" />
        </clipPath>
    </defs>
  </symbol>
  <symbol id="icon-office" viewBox="0 0 17 17">
      <path stroke-width="1.39659" stroke="currentColor" stroke-linejoin="round" d="M15.3624 13.9646V8.4998c0-0.3802-0.0776-0.7564-0.228-1.1056-0.1505-0.3492-0.3706-0.664-0.647-0.9251L9.3389 1.6034C9.0796 1.3583 8.7363 1.2217 8.3794 1.2217c-0.3568 0-0.7001 0.1366-0.9594 0.3817L2.2715 6.4691C1.9951 6.7302 1.7749 7.045 1.6245 7.3942 1.474 7.7434 1.3964 8.1196 1.3965 8.4998l0 5.4648c0 0.3704 0.1471 0.7256 0.409 0.9876 0.2619 0.2619 0.6172 0.409 0.9876 0.409h11.1727c0.3704 0 0.7256-0.1471 0.9875-0.409 0.2619-0.262 0.4091-0.6172 0.4091-0.9876z" />
  </symbol>
  <symbol id="icon-logo" viewBox="0 0 17 17">
    <path d="M3.5122 27.9827c-2.7266-2.6888-4.0057-6.7781-3.2369-10.5364 0.7605-4.2208 4.0387-7.9 8.1786-9.0596 2.0268 2.0561 4.0792 4.0847 6.1152 6.1298 0.4193 0.4046 0.8037 0.8451 1.2561 1.2139-1.4428 0.0147-2.8884-0.0387-4.3293 0.0174-1.9909 0.126-3.6774 2.0038-3.5661 4.0002-0.0184 2.0147 1.7885 3.8355 3.8042 3.8235 3.9652 92e-4 7.9295-9e-4 11.8928 65e-4 2.6052 2.6079 5.2057 5.2213 7.8247 7.8163-0.4046 0.0773-0.8157 0.0561-1.224 0.0524-6.1142 1e-3-12.2266 0-18.339 1e-3-3.0998 82e-4-6.197-1.2497-8.3763-3.465z" />
    <path d="M7.7244 7.6921C5.1468 5.132 2.6088 2.5297 0-1e-4c6.1023 0.0239 12.2036 37e-4 18.3059 0.011 1.0244 0.0138 2.0589-0.0579 3.0713 0.1343 2.5951 0.3577 5.0531 1.6276 6.849 3.533 1.9964 2.0699 3.1642 4.9004 3.2553 7.7713 0.068 2.366-0.6014 4.7505-1.8824 6.7404-1.5072 2.3146-3.8364 4.1445-6.5161 4.8765-2.0009-2.0332-4.0332-4.0378-6.047-6.06-0.4056-0.3761-0.7458-0.8267-1.2111-1.1375 0.0791-0.0653 0.1646-0.1204 0.2584-0.1646 1.2791 0.0267 2.561 0.023 3.841 65e-4 1.9863-0.0552 3.7298-1.8704 3.6903-3.8595 0.0579-1.6157-1.0355-3.1679-2.5426-3.7224-0.5748-0.2483-1.2093-0.2519-1.8245-0.2464-3.7132 36e-4-7.4255-1e-3-11.1378 27e-4-0.1554 9e-4-0.2842-0.0634-0.3853-0.1931z" />
  </symbol>
</svg>